<svg width="174" height="48" viewBox="0 0 174 48" fill="none" xmlns="http://www.w3.org/2000/svg">
<path d="M72.016 12.664C74.3627 12.664 76.4213 13.1227 78.192 14.04C79.984 14.9573 81.36 16.2693 82.32 17.976C83.3013 19.6613 83.792 21.624 83.792 23.864C83.792 26.104 83.3013 28.0667 82.32 29.752C81.36 31.416 79.984 32.7067 78.192 33.624C76.4213 34.5413 74.3627 35 72.016 35H64.208V12.664H72.016ZM71.856 31.192C74.2027 31.192 76.016 30.552 77.296 29.272C78.576 27.992 79.216 26.1893 79.216 23.864C79.216 21.5387 78.576 19.7253 77.296 18.424C76.016 17.1013 74.2027 16.44 71.856 16.44H68.688V31.192H71.856ZM103.626 25.752C103.626 26.392 103.583 26.968 103.498 27.48H90.5375C90.6442 28.76 91.0922 29.7627 91.8815 30.488C92.6708 31.2133 93.6415 31.576 94.7935 31.576C96.4575 31.576 97.6415 30.8613 98.3455 29.432H103.178C102.666 31.1387 101.684 32.5467 100.234 33.656C98.7828 34.744 97.0015 35.288 94.8895 35.288C93.1828 35.288 91.6468 34.9147 90.2815 34.168C88.9375 33.4 87.8815 32.3227 87.1135 30.936C86.3668 29.5493 85.9935 27.9493 85.9935 26.136C85.9935 24.3013 86.3668 22.6907 87.1135 21.304C87.8602 19.9173 88.9055 18.8507 90.2495 18.104C91.5935 17.3573 93.1402 16.984 94.8895 16.984C96.5748 16.984 98.0788 17.3467 99.4015 18.072C100.746 18.7973 101.78 19.832 102.506 21.176C103.252 22.4987 103.626 24.024 103.626 25.752ZM98.9855 24.472C98.9642 23.32 98.5482 22.4027 97.7375 21.72C96.9268 21.016 95.9348 20.664 94.7615 20.664C93.6522 20.664 92.7135 21.0053 91.9455 21.688C91.1988 22.3493 90.7402 23.2773 90.5695 24.472H98.9855ZM113.68 35.288C112.229 35.288 110.928 35.032 109.776 34.52C108.624 33.9867 107.706 33.272 107.024 32.376C106.362 31.48 106 30.488 105.936 29.4H110.448C110.533 30.0827 110.864 30.648 111.44 31.096C112.037 31.544 112.773 31.768 113.648 31.768C114.501 31.768 115.162 31.5973 115.632 31.256C116.122 30.9147 116.368 30.4773 116.368 29.944C116.368 29.368 116.069 28.9413 115.472 28.664C114.896 28.3653 113.968 28.0453 112.688 27.704C111.365 27.384 110.277 27.0533 109.424 26.712C108.592 26.3707 107.866 25.848 107.248 25.144C106.65 24.44 106.352 23.4907 106.352 22.296C106.352 21.3147 106.629 20.4187 107.184 19.608C107.76 18.7973 108.57 18.1573 109.616 17.688C110.682 17.2187 111.93 16.984 113.36 16.984C115.472 16.984 117.157 17.5173 118.416 18.584C119.674 19.6293 120.368 21.048 120.496 22.84H116.208C116.144 22.136 115.845 21.5813 115.312 21.176C114.8 20.7493 114.106 20.536 113.232 20.536C112.421 20.536 111.792 20.6853 111.344 20.984C110.917 21.2827 110.704 21.6987 110.704 22.232C110.704 22.8293 111.002 23.288 111.6 23.608C112.197 23.9067 113.125 24.216 114.384 24.536C115.664 24.856 116.72 25.1867 117.552 25.528C118.384 25.8693 119.098 26.4027 119.696 27.128C120.314 27.832 120.634 28.7707 120.656 29.944C120.656 30.968 120.368 31.8853 119.792 32.696C119.237 33.5067 118.426 34.1467 117.36 34.616C116.314 35.064 115.088 35.288 113.68 35.288ZM126.605 15.16C125.816 15.16 125.154 14.9147 124.621 14.424C124.109 13.912 123.853 13.2827 123.853 12.536C123.853 11.7893 124.109 11.1707 124.621 10.68C125.154 10.168 125.816 9.912 126.605 9.912C127.394 9.912 128.045 10.168 128.557 10.68C129.09 11.1707 129.357 11.7893 129.357 12.536C129.357 13.2827 129.09 13.912 128.557 14.424C128.045 14.9147 127.394 15.16 126.605 15.16ZM128.813 17.272V35H124.333V17.272H128.813ZM140.183 16.984C141.506 16.984 142.669 17.2507 143.671 17.784C144.674 18.296 145.463 18.968 146.039 19.8V17.272H150.551V35.128C150.551 36.7707 150.221 38.232 149.559 39.512C148.898 40.8133 147.906 41.8373 146.583 42.584C145.261 43.352 143.661 43.736 141.783 43.736C139.266 43.736 137.197 43.1493 135.575 41.976C133.975 40.8027 133.069 39.2027 132.855 37.176H137.303C137.538 37.9867 138.039 38.6267 138.807 39.096C139.597 39.5867 140.546 39.832 141.655 39.832C142.957 39.832 144.013 39.4373 144.823 38.648C145.634 37.88 146.039 36.7067 146.039 35.128V32.376C145.463 33.208 144.663 33.9013 143.639 34.456C142.637 35.0107 141.485 35.288 140.183 35.288C138.69 35.288 137.325 34.904 136.087 34.136C134.85 33.368 133.869 32.2907 133.143 30.904C132.439 29.496 132.087 27.8853 132.087 26.072C132.087 24.28 132.439 22.6907 133.143 21.304C133.869 19.9173 134.839 18.8507 136.055 18.104C137.293 17.3573 138.669 16.984 140.183 16.984ZM146.039 26.136C146.039 25.048 145.826 24.12 145.399 23.352C144.973 22.5627 144.397 21.9653 143.671 21.56C142.946 21.1333 142.167 20.92 141.335 20.92C140.503 20.92 139.735 21.1227 139.031 21.528C138.327 21.9333 137.751 22.5307 137.303 23.32C136.877 24.088 136.663 25.0053 136.663 26.072C136.663 27.1387 136.877 28.0773 137.303 28.888C137.751 29.6773 138.327 30.2853 139.031 30.712C139.757 31.1387 140.525 31.352 141.335 31.352C142.167 31.352 142.946 31.1493 143.671 30.744C144.397 30.3173 144.973 29.72 145.399 28.952C145.826 28.1627 146.039 27.224 146.039 26.136ZM164.751 17.016C166.863 17.016 168.569 17.688 169.871 19.032C171.172 20.3547 171.823 22.2107 171.823 24.6V35H167.343V25.208C167.343 23.8 166.991 22.7227 166.287 21.976C165.583 21.208 164.623 20.824 163.407 20.824C162.169 20.824 161.188 21.208 160.463 21.976C159.759 22.7227 159.407 23.8 159.407 25.208V35H154.927V17.272H159.407V19.48C160.004 18.712 160.761 18.1147 161.679 17.688C162.617 17.24 163.641 17.016 164.751 17.016Z" fill="#0DB760"/>
<path fill-rule="evenodd" clip-rule="evenodd" d="M11.0297 47.9871V16.853C11.0297 15.2236 11.2014 13.9747 10.3415 12.5353C9.63421 11.3501 8.41118 10.0591 6.86262 9.19123C5.83024 8.59862 4.62624 8.21759 3.36473 8.21759C3.13517 8.21759 2.90561 8.21759 2.6955 8.23865C3.93799 7.20182 6.00231 6.4187 7.89456 6.07979C6.00231 4.21723 3.55538 4.15357 0.936833 4.19617C0.630752 4.21723 0.306081 4.21723 0 4.23829C2.02628 2.31255 5.69622 1 9.90181 1C11.1253 1 12.2912 1.10579 13.3807 1.31737C16.2482 1.84631 19.0964 3.30678 20.6635 5.33879L32.4961 21.784L45.2654 4.1325H53.1786C53.6373 4.1325 54 4.5346 54 5.04248V6.35455L48.2843 8.00553C47.8637 8.1118 47.5969 8.53496 47.6925 8.91551C47.7686 9.29654 48.1888 9.50812 48.6094 9.38127L54 7.81549V9.29702L48.2843 10.948C47.8637 11.0753 47.5969 11.4769 47.6925 11.8585C47.7686 12.2395 48.1888 12.4511 48.6094 12.3237L54 10.7785V12.2601L48.2843 13.911C47.8637 14.0168 47.5969 14.44 47.6925 14.821C47.7686 15.2021 48.1888 15.4136 48.6094 15.2868L54 13.7205V15.2021L48.2843 16.853C47.8637 16.9804 47.5969 17.382 47.6925 17.763C47.7686 18.144 48.1888 18.3556 48.6094 18.2288L54 16.6836V18.1651L48.2843 19.8161C47.8637 19.9219 47.5969 20.345 47.6925 20.7261C47.7686 21.1071 48.1888 21.3187 48.6094 21.1918L54 19.6256V21.1076L48.2843 22.7581C47.8637 22.8854 47.5969 23.287 47.6925 23.6685C47.7686 24.0491 48.1888 24.2611 48.6094 24.1338L54 22.5886V24.0491L48.2843 25.7211C47.8637 25.8269 47.5969 26.2501 47.6925 26.6311C47.7686 26.9911 48.1888 27.2027 48.6094 27.0969L54 25.5306V27.0121L48.2843 28.6631C47.8637 28.79 47.5969 29.1921 47.6925 29.5731C47.7686 29.9536 48.1888 30.1657 48.6094 30.0389L54 28.4937V29.9536L48.2843 31.6046C47.8637 31.732 47.5969 32.1546 47.6925 32.5146C47.7686 32.8956 48.1888 33.1072 48.6094 33.0014L54 31.4356V32.9172L48.2843 34.5682C47.8637 34.695 47.5969 35.0971 47.6925 35.4781C47.7686 35.8592 48.1888 36.0707 48.6094 35.9439L54 34.3987V35.8592L48.2843 37.5097C47.8637 37.637 47.5969 38.0386 47.6925 38.4196C47.7686 38.8007 48.1888 39.0123 48.6094 38.9069L54 37.3407V38.8227L48.2843 40.4732C47.8637 40.6005 47.5969 41.0021 47.6925 41.3832C47.7686 41.7642 48.1888 41.9758 48.6094 41.8489L54 40.3037V41.7642L48.2843 43.4152C47.8637 43.542 47.5969 43.9436 47.6925 44.3252C47.7686 44.7057 48.1888 44.9173 48.6094 44.812L54 43.2457V47.0982C53.9814 47.585 53.6183 47.9866 53.1786 47.9866H44.2707V20.8323L32.4961 36.8759L20.836 20.8323V47.9876H11.0297V47.9871Z" fill="#0DB760"/>
</svg>
